<svg width="24" height="24" viewBox="0 0 24 24" fill="none" xmlns="http://www.w3.org/2000/svg">
<g clip-path="url(#clip0_19_9)">
<mask id="mask0_19_9" style="mask-type:luminance" maskUnits="userSpaceOnUse" x="0" y="0" width="24" height="24">
<path d="M24 0H0V24H24V0Z" fill="white"/>
</mask>
<g mask="url(#mask0_19_9)">
<path d="M9 2C6.38 2 4.25 4.13 4.25 6.75C4.25 9.32 6.26 11.4 8.88 11.49C8.96 11.48 9.04 11.48 9.1 11.49C9.12 11.49 9.13 11.49 9.15 11.49C9.16 11.49 9.16 11.49 9.17 11.49C11.73 11.4 13.74 9.32 13.75 6.75C13.75 4.13 11.62 2 9 2Z" fill="black"/>
<path d="M14.08 14.1499C11.29 12.2899 6.73996 12.2899 3.92996 14.1499C2.65996 14.9999 1.95996 16.1499 1.95996 17.3799C1.95996 18.6099 2.65996 19.7499 3.91996 20.5899C5.31996 21.5299 7.16 21.9999 9 21.9999C10.84 21.9999 12.68 21.5299 14.08 20.5899C15.34 19.7399 16.04 18.5999 16.04 17.3599C16.03 16.1299 15.34 14.9899 14.08 14.1499Z" fill="black"/>
</g>
<path d="M22.5557 10.4559C22.8538 10.456 23.0995 10.7018 23.0996 10.9999C23.0996 11.298 22.8538 11.5447 22.5557 11.5448H15.4443C15.1462 11.5447 14.9004 11.298 14.9004 10.9999C14.9005 10.7018 15.1462 10.456 15.4443 10.4559H22.5557Z" fill="black" stroke="black" stroke-width="0.2"/>
<path d="M18.9999 6.90039C19.298 6.90039 19.5448 7.14619 19.5448 7.44434V14.5557C19.5448 14.8538 19.298 15.0996 18.9999 15.0996C18.7018 15.0995 18.456 14.8538 18.4559 14.5557V7.44434C18.456 7.14623 18.7018 6.90045 18.9999 6.90039Z" fill="black" stroke="black" stroke-width="0.2"/>
</g>
<defs>
<clipPath id="clip0_19_9">
<rect width="24" height="24" fill="white"/>
</clipPath>
</defs>
</svg>
